<svg xmlns="http://www.w3.org/2000/svg" width="153.144" height="60" viewBox="0 0 153.144 60">
    <defs>
        <style>.a{fill:#2bbab4;}.b{fill:#ceced2;}</style>
    </defs>
    <g transform="translate(583 -20.077)">
        <g transform="translate(-571.249 34.427)">
            <path class="a" d="M17.05,30.777H28.8V36.04H6.7L19.857,14.463H8.805V9.2h21.4Z" transform="translate(-6.7 -7.446)"/>
            <g transform="translate(28.945 1.754)">
                <path class="a" d="M38.287,19.9H29.515V14.463h9.122V9.2H23.2V25.164H38.287Z" transform="translate(-23.2 -9.2)"/>
                <path class="a" d="M29.515,22.556V20.1H23.2v7.719H38.637V22.556Z" transform="translate(-23.2 -0.979)"/>
            </g>
            <path class="a" d="M41.915,9.2V30.777H52.09V36.04H35.6V9.2Z" transform="translate(15.098 -7.446)"/>
            <path class="a" d="M53.615,9.2V30.777H63.79V36.04H47.3V9.2Z" transform="translate(23.923 -7.446)"/>
            <path class="a" d="M84.748,9.206a9.824,9.824,0,0,1,7.017,2.456,8.245,8.245,0,0,1,2.281,5.964,7.368,7.368,0,0,1-2.105,5.614,8.771,8.771,0,0,1-3.859,2.105l8.42,10.7H88.959L81.591,25.7v10.35H75.1V9.206ZM81.415,21.661h1.4a5.263,5.263,0,0,0,3.859-1.228A3.684,3.684,0,0,0,87.731,17.8,3.333,3.333,0,0,0,86.5,14.995a6.14,6.14,0,0,0-3.509-.877h-1.4v7.543Z" transform="translate(44.891 -7.451)"/>
            <path class="a" d="M81.858,29.076H67.473l4.561-9.3,2.631,6.14h5.789L71.859,8.2h0L58,36.794h6.491l1.93-4.386h10.7l1.93,4.386h6.491Z" transform="translate(31.993 -8.2)"/>
        </g>
        <path class="b" d="M48.592,48.578a26.314,26.314,0,1,1,0-37.015h0l1.228,1.228h4.736a30,30,0,1,0,.526,33.682H50.346Z" transform="translate(-583.001 20.057)"/>
    </g>
</svg>